# 3ds Max Wavefront OBJ Exporter v0.97b - (c)2007 guruware
# File Created: 30.11.2015 16:22:00

mtllib 3d-model.mtl

#
# object Layer0_001
#

v  -48.0000 0.0000 -31.4375
v  -48.0000 0.0000 -57.6875
v  48.0000 0.0000 -57.6875
v  -48.0000 0.0000 57.6875
v  48.0000 0.0000 57.6875
v  -48.0000 24.0000 -57.6875
v  -48.0000 24.0000 38.3125
v  48.0000 24.0000 38.3125
v  48.0000 24.0000 -57.6875
v  -48.0000 5.9884 50.0625
v  -48.0000 11.9942 50.0625
v  -48.0000 11.9942 44.1250
v  -48.0000 5.9884 57.6875
v  -48.0000 17.9732 38.3125
v  -48.0000 17.9732 44.1250
v  48.0000 5.9884 57.6875
v  48.0000 5.9884 50.0625
v  48.0000 11.9942 50.0625
v  48.0000 11.9942 44.1250
v  48.0000 17.9732 44.1250
v  48.0000 17.9732 38.3125
# 21 vertices

vn 0.0000 -1.0000 -0.0000
vn 0.0000 1.0000 -0.0000
vn -1.0000 -0.0000 -0.0000
vn 0.0000 0.0000 -1.0000
vn 1.0000 0.0000 -0.0000
vn 0.0000 0.0000 1.0000
# 6 vertex normals

vt 0.0000 0.0000 0.0000
vt 0.0000 3.2000 0.0000
vt 1.6000 0.0000 0.0000
vt 1.6000 3.2000 0.0000
vt 0.1958 0.1996 0.0000
vt 0.1958 0.3998 0.0000
vt 0.0969 0.3998 0.0000
vt -1.1625 0.0000 0.0000
vt 0.3229 -0.0000 0.0000
vt 0.3229 0.1996 0.0000
vt 0.0000 0.5991 0.0000
vt 0.0969 0.5991 0.0000
vt -1.6000 0.8000 0.0000
vt 0.0000 0.8000 0.0000
vt -1.6000 0.0000 0.0000
vt -0.3229 0.1996 0.0000
vt -0.3229 0.0000 0.0000
vt -0.1958 0.1996 0.0000
vt -0.1958 0.3998 0.0000
vt -0.0969 0.3998 0.0000
vt -0.0969 0.5991 0.0000
vt 1.6000 0.8000 0.0000
vt 1.6000 0.5991 0.0000
vt 1.6000 0.1996 0.0000
vt 0.0000 0.1996 0.0000
vt 0.0000 -0.3917 0.0000
vt 0.0000 -0.6458 0.0000
vt 1.6000 -0.6458 0.0000
vt 1.6000 -0.3917 0.0000
vt 1.6000 0.3998 0.0000
vt -0.0000 0.3998 0.0000
vt -0.0000 -0.1937 0.0000
vt 1.6000 -0.1937 0.0000
# 33 texture coords

g Layer0_001
usemtl wire_134006006
s off
f 1/1/1 2/1/1 3/1/1 4/1/1 
f 4/1/1 3/1/1 5/1/1 
f 6/2/2 7/1/2 8/3/2 9/4/2 
f 10/5/3 11/6/3 12/7/3 1/8/3 
f 10/5/3 1/8/3 4/9/3 13/10/3 
f 14/11/3 1/8/3 12/7/3 15/12/3 
f 6/13/3 1/8/3 14/11/3 7/14/3 
f 1/8/3 6/13/3 2/15/3 
f 3/15/4 2/1/4 6/14/4 9/13/4 
f 16/16/5 5/17/5 3/3/5 17/18/5 
f 18/19/5 17/18/5 3/3/5 19/20/5 
f 20/21/5 19/20/5 3/3/5 21/11/5 
f 8/14/5 21/11/5 3/3/5 9/22/5 
f 14/11/6 21/23/6 8/22/6 7/14/6 
f 4/1/6 5/3/6 16/24/6 13/25/6 
f 10/26/2 13/27/2 16/28/2 17/29/2 
f 10/25/6 17/24/6 18/30/6 11/31/6 
f 12/32/2 11/26/2 18/29/2 19/33/2 
f 12/31/6 19/30/6 20/23/6 15/11/6 
f 14/1/2 15/32/2 20/33/2 21/3/2 
# 18 polygons - 2 triangles

